<?xml version="1.0" encoding="UTF-8" standalone="no"?>
<!-- Created with Inkscape (http://www.inkscape.org/) -->

<svg
   width="64"
   height="64"
   viewBox="0 0 16.933333 16.933333"
   version="1.1"
   id="svg1"
   xml:space="preserve"
   inkscape:version="1.4 (e7c3feb100, 2024-10-09)"
   sodipodi:docname="eta-otp.svg"
   xmlns:inkscape="http://www.inkscape.org/namespaces/inkscape"
   xmlns:sodipodi="http://sodipodi.sourceforge.net/DTD/sodipodi-0.dtd"
   xmlns:xlink="http://www.w3.org/1999/xlink"
   xmlns="http://www.w3.org/2000/svg"
   xmlns:svg="http://www.w3.org/2000/svg"><sodipodi:namedview
     id="namedview1"
     pagecolor="#ffffff"
     bordercolor="#000000"
     borderopacity="0.25"
     inkscape:showpageshadow="2"
     inkscape:pageopacity="0.0"
     inkscape:pagecheckerboard="0"
     inkscape:deskcolor="#d1d1d1"
     inkscape:document-units="mm"
     inkscape:zoom="1.436055"
     inkscape:cx="-246.85684"
     inkscape:cy="13.230691"
     inkscape:window-width="1920"
     inkscape:window-height="1008"
     inkscape:window-x="0"
     inkscape:window-y="0"
     inkscape:window-maximized="1"
     inkscape:current-layer="layer1" /><defs
     id="defs1"><linearGradient
       id="linearGradient15"
       inkscape:collect="always"><stop
         style="stop-color:#005e3d;stop-opacity:1;"
         offset="0"
         id="stop15" /><stop
         style="stop-color:#005e5e;stop-opacity:1;"
         offset="1"
         id="stop16" /></linearGradient><radialGradient
       inkscape:collect="always"
       xlink:href="#linearGradient15"
       id="radialGradient16"
       cx="105"
       cy="148.5"
       fx="105"
       fy="148.5"
       r="65.590569"
       gradientUnits="userSpaceOnUse"
       gradientTransform="matrix(0.11266124,0,0,0.11266124,-3.3627635,-8.2635245)" /></defs><g
     inkscape:label="Katman 1"
     inkscape:groupmode="layer"
     id="layer1"><rect
       style="fill:url(#radialGradient16);stroke:#000000;stroke-width:0.298082;stroke-dasharray:none;stroke-opacity:1"
       id="rect1"
       width="14.77903"
       height="14.77903"
       x="1.0771519"
       y="1.0771549"
       ry="2.4078195" /><g
       style="fill:none;stroke:#ffffff;stroke-opacity:1"
       id="g15"
       transform="matrix(0.29260257,0,0,0.29260257,4.9554359,7.650235)"><path
         d="M 16.584,6 C 15.8124,4.2341 14.0503,3 12,3 9.23858,3 7,5.23858 7,8 v 2.0288 m 0,0 C 7.47142,10 8.05259,10 8.8,10 h 6.4 c 1.6802,0 2.5202,0 3.162,0.327 0.5645,0.2876 1.0234,0.7465 1.311,1.311 C 20,12.2798 20,13.1198 20,14.8 v 1.4 c 0,1.6802 0,2.5202 -0.327,3.162 -0.2876,0.5645 -0.7465,1.0234 -1.311,1.311 C 17.7202,21 16.8802,21 15.2,21 H 8.8 C 7.11984,21 6.27976,21 5.63803,20.673 5.07354,20.3854 4.6146,19.9265 4.32698,19.362 4,18.7202 4,17.8802 4,16.2 V 14.8 C 4,13.1198 4,12.2798 4.32698,11.638 4.6146,11.0735 5.07354,10.6146 5.63803,10.327 5.99429,10.1455 6.41168,10.0647 7,10.0288 Z"
         stroke="#000000"
         stroke-width="2"
         stroke-linecap="round"
         stroke-linejoin="round"
         id="path1"
         style="stroke:#ffffff;stroke-opacity:1" /></g><g
       id="g5"
       transform="matrix(0.89937107,0,0,0.89937107,-1.0668225,0.4901564)"><rect
         style="fill:#ffffff;fill-opacity:1;stroke:none;stroke-width:3.44825"
         id="rect2"
         width="3.661833"
         height="3.661833"
         x="3.4775898"
         y="3.0400126" /><rect
         style="fill:#ffffff;fill-opacity:1;stroke:none;stroke-width:3.44825"
         id="rect4"
         width="3.661833"
         height="3.661833"
         x="8.7692566"
         y="3.0400126" /><rect
         style="fill:#ffffff;fill-opacity:1;stroke:none;stroke-width:3.44825"
         id="rect5"
         width="3.661833"
         height="3.661833"
         x="14.060924"
         y="3.0400126" /></g></g></svg>
