<?xml version="1.0" encoding="UTF-8" standalone="no"?>
<!-- Created with Inkscape (http://www.inkscape.org/) -->

<svg
   width="64"
   height="64"
   viewBox="0 0 16.933333 16.933333"
   version="1.1"
   id="svg1"
   inkscape:version="1.4 (e7c3feb100, 2024-10-09)"
   sodipodi:docname="eta-otp.svg"
   xml:space="preserve"
   xmlns:inkscape="http://www.inkscape.org/namespaces/inkscape"
   xmlns:sodipodi="http://sodipodi.sourceforge.net/DTD/sodipodi-0.dtd"
   xmlns="http://www.w3.org/2000/svg"
   xmlns:svg="http://www.w3.org/2000/svg"><sodipodi:namedview
     id="namedview1"
     pagecolor="#ffffff"
     bordercolor="#000000"
     borderopacity="0.25"
     inkscape:showpageshadow="2"
     inkscape:pageopacity="0.0"
     inkscape:pagecheckerboard="0"
     inkscape:deskcolor="#d1d1d1"
     inkscape:document-units="px"
     inkscape:zoom="3.296156"
     inkscape:cx="6.6744414"
     inkscape:cy="55.215833"
     inkscape:window-width="1920"
     inkscape:window-height="1008"
     inkscape:window-x="0"
     inkscape:window-y="0"
     inkscape:window-maximized="1"
     inkscape:current-layer="layer1" /><defs
     id="defs1"><linearGradient
       id="SVGID_00000129901450951144020920000007753056098303935627_"
       gradientUnits="userSpaceOnUse"
       x1="-434.02811"
       y1="-74.135002"
       x2="-434.02811"
       y2="-49.8008"
       gradientTransform="matrix(1,0,0,-1,0,-121.5918)"><stop
         offset="0"
         style="stop-color:#27AFD9"
         id="stop80" /><stop
         offset="1"
         style="stop-color:#42BDD9"
         id="stop81" /></linearGradient></defs><g
     inkscape:label="Layer 1"
     inkscape:groupmode="layer"
     id="layer1"><g
       id="g3"><path
         class="st0"
         d="M 16.789635,13.997527 V 2.935806 C 16.682937,1.4419402 15.544746,0.30375658 14.05088,0.16148368 H 2.9535903 C 1.4241553,0.26818839 0.21483566,1.5130766 0.14369874,3.0425107 v 10.8838813 0 C 0.25041017,15.526961 1.4952922,16.77185 3.060295,16.77185 h 10.88388 c 1.493866,0 2.738755,-1.20932 2.84546,-2.774323 z"
         id="path4-3"
         style="opacity:0.3;fill:#ffffff;stroke-width:0.355682;enable-background:new" /><path
         class="st21"
         d="M 0.71278336,3.0958633 V 3.0247268 C 0.78391893,1.7798386 1.7798304,0.78392804 2.98915,0.67722333 h 0.071141 10.919448 0.07114 c 1.173752,0.0711369 2.134094,1.06704697 2.205231,2.27636697 V 3.0247272 14.015311 C 16.18497,15.2602 15.153495,16.25611 13.944175,16.25611 H 3.060295 c -1.2448887,0 -2.276368,-0.99591 -2.38307271,-2.311935 v -0.03557 z"
         id="path100-7"
         style="fill:#ebf3f8;fill-opacity:1;stroke-width:0.355682" /><g
         id="g109-7"
         transform="matrix(0,0.35568236,-0.35568236,0,-13.514503,-27.226058)"><path
           class="st2"
           d="m 85.3,-38.9 h -0.2 c -4.1,-0.2 -7.3,-3.4 -7.6,-7.4 v -0.3 -30.7 -0.2 c 0.3,-3.9 3.4,-6.9 7.3,-7.2 h 0.2 30.9 c 4.1,0.3 7.3,3.6 7.3,7.5 v 30.6 c 0,4.1 -3.3,7.4 -7.5,7.7 h -0.1 z M 85.1,-82.6 H 85 c -2.9,0.2 -5.2,2.4 -5.4,5.2 v 0.1 30.8 c 0.2,2.9 2.6,5.2 5.6,5.4 h 0.1 30.4 c 3.1,-0.2 5.5,-2.7 5.5,-5.6 v -30.6 c 0,-2.8 -2.3,-5.2 -5.3,-5.4 z"
           id="path109-0"
           style="fill:#2f3536" /></g><g
         style="fill:#3780c2;fill-opacity:1"
         id="g1"
         transform="matrix(0.01044155,0,0,0.01044155,3.4547225,15.6981)"><path
           d="m 160,-440 q -50,0 -85,-35 -35,-35 -35,-85 0,-50 35,-85 35,-35 85,-35 50,0 85,35 35,35 35,85 0,50 -35,85 -35,35 -85,35 z m -80,240 v -80 h 800 v 80 z m 400,-240 q -50,0 -85,-35 -35,-35 -35,-85 0,-50 35,-85 35,-35 85,-35 50,0 85,35 35,35 35,85 0,50 -35,85 -35,35 -85,35 z m 320,0 q -50,0 -85,-35 -35,-35 -35,-85 0,-50 35,-85 35,-35 85,-35 50,0 85,35 35,35 35,85 0,50 -35,85 -35,35 -85,35 z"
           id="path1"
           style="fill:#3780c2;fill-opacity:1" /></g><g
         style="fill:#27afd9;fill-opacity:1"
         id="g2"
         transform="matrix(0.00957595,0,0,0.00957595,3.6786915,10.218227)"><path
           d="m 280,-400 q -33,0 -56.5,-23.5 Q 200,-447 200,-480 q 0,-33 23.5,-56.5 23.5,-23.5 56.5,-23.5 33,0 56.5,23.5 23.5,23.5 23.5,56.5 0,33 -23.5,56.5 Q 313,-400 280,-400 Z m 0,160 q -100,0 -170,-70 -70,-70 -70,-170 0,-100 70,-170 70,-70 170,-70 67,0 121.5,33 54.5,33 86.5,87 h 352 l 120,120 -180,180 -80,-60 -80,60 -85,-60 h -47 q -32,54 -86.5,87 -54.5,33 -121.5,33 z m 0,-80 q 56,0 98.5,-34 42.5,-34 56.5,-86 h 125 l 58,41 82,-61 71,55 75,-75 -40,-40 H 435 q -14,-52 -56.5,-86 -42.5,-34 -98.5,-34 -66,0 -113,47 -47,47 -47,113 0,66 47,113 47,47 113,47 z"
           id="path1-6"
           style="fill:#27afd9;fill-opacity:1" /></g></g></g></svg>
